Coordinates
version=1
nRows=17
nColumns=36
inDegrees=yes

Units are S.I. units (second, meters, Newtons, ...)
If the header above contains a line with 'inDegrees', this indicates whether rotational values are in degrees (yes) or radians (no).

endheader
time	pelvis_tilt	pelvis_list	pelvis_rotation	pelvis_tx	pelvis_ty	pelvis_tz	hip_flexion_r	hip_adduction_r	hip_rotation_r	knee_angle_r	knee_angle_r_beta	ankle_angle_r	subtalar_angle_r	mtp_angle_r	hip_flexion_l	hip_adduction_l	hip_rotation_l	knee_angle_l	knee_angle_l_beta	ankle_angle_l	subtalar_angle_l	mtp_angle_l	lumbar_extension	lumbar_bending	lumbar_rotation	arm_flex_r	arm_add_r	arm_rot_r	elbow_flex_r	pro_sup_r	arm_flex_l	arm_add_l	arm_rot_l	elbow_flex_l	pro_sup_l
     29.93333330	     -6.73891463	      2.42296417	    -11.82005590	      0.62425436	      0.89319609	      0.75181763	     -1.96846315	     -2.14126309	      1.17815906	     20.24310368	      0.35330881	     17.21087085	      2.58796543	     -7.49999987	     35.66543025	     -3.15209064	     -7.21265777	     20.88668613	      0.36454144	      7.24037381	     -4.37997088	     -7.49999987	      6.93933756	     -1.27973818	     12.08068365	     13.42553187	    -16.03337647	      2.56885663	     44.89430286	     84.37905856	     -7.48625762	     -7.18612888	      2.08075407	      8.53770535	     82.22211694
     29.95000000	     -6.59739466	      2.93840919	    -11.81048795	      0.63062839	      0.89574006	      0.74869849	     -1.33343482	     -3.19443303	      1.77556832	     23.82541127	      0.41583187	     14.53701234	      0.62108924	     -7.49999987	     34.92131863	     -2.36112341	     -6.91749534	     22.33251101	      0.38977585	      6.13560757	     -5.40353837	     -7.49999987	      7.22327669	     -2.19371117	     11.61144253	     12.71412420	    -15.34330510	      2.59942527	     44.34029211	     84.27245819	     -7.42711005	     -7.35111281	      2.11326683	      8.57793904	     82.17777554
     29.96666670	     -6.60228382	      3.44256361	    -11.70304904	      0.63732562	      0.89936900	      0.74348019	      0.26194761	     -4.17459525	      2.46637319	     28.69353655	      0.50079669	      9.58105829	     -2.40831760	     -7.49999987	     34.05506253	     -1.44641245	     -6.62418709	     23.29476927	      0.40657042	      5.27179619	     -6.10842336	     -7.49999987	      7.82617085	     -2.94827672	     11.11262062	     11.64306764	    -14.64267365	      2.44937730	     43.17675806	     84.23054890	     -7.28312699	     -7.45375268	      2.30417360	      8.48547355	     82.18962599
     29.98333330	     -6.54074356	      4.13817357	    -11.62036932	      0.64231532	      0.90404356	      0.73704260	      2.81222706	     -5.35329620	      3.11926775	     34.95968777	      0.61016166	      2.50662102	     -5.65798258	     -7.49999987	     32.83818263	     -0.27907874	     -6.63301956	     23.65255278	      0.41281492	      4.78508504	     -6.30060901	     -7.49999987	      8.35522700	     -3.83220835	     10.54153835	     10.35812345	    -13.86740259	      2.23911674	     41.98858968	     84.19549736	     -7.23549403	     -7.52379240	      2.56301833	      8.72672601	     82.11799058
     30.00000000	     -6.17894925	      5.10369108	    -11.66791230	      0.64460837	      0.90702294	      0.73199096	      5.95006398	     -6.80008942	      3.92856483	     42.26564321	      0.73767463	     -5.62662682	     -8.52315149	     -7.49999987	     31.07043953	      1.22984158	     -6.89667843	     23.39703448	      0.40835529	      4.66389091	     -6.37391941	     -7.49999987	      8.38617640	     -5.08267096	      9.87944247	      9.02101916	    -13.00463743	      2.13279835	     41.05934614	     84.14969271	     -7.15672281	     -7.56839094	      2.73966073	      9.08060007	     82.01000963
     30.01666670	     -6.19809390	      5.74606340	    -11.78379106	      0.64392846	      0.90860096	      0.72981580	      9.67261532	     -7.45859043	      5.00230313	     49.19970243	      0.85869680	    -13.98488071	    -11.80893457	     -7.49999987	     29.66783366	      2.32176528	     -6.95467653	     23.03769910	      0.40208370	      5.10905119	     -6.49973946	     -7.49999987	      8.76266201	     -5.79181178	      9.55983616	      7.59241183	    -12.21176053	      1.73480787	     39.51414240	     84.05270282	     -7.04044714	     -7.59085968	      3.03048577	      9.97965374	     81.66898473
     30.03333330	     -5.77670526	      6.22149062	    -11.85373979	      0.64037119	      0.91161976	      0.72853541	     12.63461680	     -8.02561085	      5.43769957	     55.03868925	      0.96060634	    -18.83449833	    -12.30577519	     -7.49999987	     27.76194718	      3.39613922	     -6.82827941	     22.40265589	      0.39100011	      5.77363792	     -6.71297032	     -7.49999987	      8.09497764	     -6.50163492	      8.87920610	      6.37752469	    -11.53280179	      1.72321510	     38.76023870	     83.96517164	     -6.52418637	     -7.56043089	      3.13988998	     10.64534198	     81.49695607
     30.05000000	     -6.21759683	      6.55984404	    -12.22494914	      0.63628829	      0.91188378	      0.72696571	     16.00340766	     -7.81507431	      6.20033404	     59.24634133	      1.03404373	    -22.18795406	    -14.54227390	     -7.49999987	     26.70374896	      3.91136357	     -7.03049552	     21.53610762	      0.37587599	      5.91752265	     -7.03166971	     -7.49999987	      8.74817613	     -6.74646896	      8.83078236	      5.10050405	    -10.72084912	      1.23732562	     36.61131036	     83.86881021	     -6.24983612	     -7.61274459	      3.61455978	     11.70242496	     80.92193869
     30.06666670	     -6.23621730	      6.55446651	    -12.39536870	      0.63471613	      0.91015273	      0.72423076	     18.42311333	     -7.44542710	      6.35192647	     62.28589003	      1.08709386	    -22.28565094	    -15.16066007	     -7.49999987	     25.32174483	      4.26558360	     -7.08011792	     20.90269077	      0.36482078	      6.22620289	     -7.17459260	     -7.49999987	      8.40524992	     -6.74398911	      8.34257586	      3.91206740	    -10.30541294	      1.23557846	     35.48518459	     83.84384804	     -5.53350048	     -7.47515440	      3.80728213	     12.33959859	     80.74172654
     30.08333330	     -6.66230643	      6.42176901	    -12.59019097	      0.63782157	      0.90791949	      0.72344899	     21.04700725	     -6.73760199	      6.50005505	     64.50967695	      1.12590626	    -20.08408771	    -15.59147134	     -7.49999987	     24.32838685	      4.35822970	     -7.20224897	     20.34808942	      0.35514116	      6.48567804	     -7.24355936	     -7.49999987	      8.84862685	     -6.42785751	      8.06175618	      2.83948278	     -9.92181981	      1.02922299	     33.24374677	     83.86682084	     -4.99360537	     -7.38414078	      4.35969763	     12.99449419	     80.41897369
     30.10000000	     -6.81907053	      6.10839145	    -12.66471482	      0.64284348	      0.90749452	      0.72562740	     23.22729643	     -5.85716031	      6.40281101	     65.97968719	      1.15156278	    -15.74783956	    -15.85340002	     -7.49999987	     22.94395135	      4.35628369	     -7.17671903	     19.88188264	      0.34700431	      6.96814893	     -7.20922721	     -7.49999987	      8.85895077	     -6.01325999	      7.40063330	      1.92032615	     -9.61404507	      0.97050230	     31.19133606	     83.47673600	     -4.37850578	     -7.40766914	      5.01461931	     13.59489410	     79.54122505
     30.11666670	     -6.76851129	      5.75004535	    -12.75953074	      0.64641229	      0.91019723	      0.72899539	     25.19188520	     -4.86423947	      6.26544950	     66.72780885	      1.16461997	    -10.21814836	    -16.02948092	     -7.49999987	     21.20490825	      4.31294685	     -6.98904465	     19.39221059	      0.33845792	      7.61445783	     -7.19605066	     -7.49999987	      8.62971121	     -5.63563451	      6.83005699	      0.97322469	     -9.33125491	      0.98697631	     29.18484188	     82.73150900	     -3.49194342	     -7.55791772	      5.44852367	     14.43014140	     78.56157722
     30.13333330	     -6.69579241	      5.33428421	    -12.70031997	      0.64883179	      0.91304073	      0.73043336	     27.11174924	     -3.95932131	      5.80707995	     66.74130866	      1.16485558	     -4.08580760	    -15.40963747	     -7.49999987	     19.31685925	      4.24328199	     -6.59255492	     18.80467114	      0.32820343	      8.27060981	     -7.19539714	     -7.49999987	      8.43253544	     -5.17410762	      5.92913927	      0.22463659	     -9.03618673	      1.13045280	     27.11518054	     82.62177761	     -2.54289212	     -7.92748457	      6.25371876	     15.23479997	     78.18378732
     30.15000000	     -6.50196743	      4.89897695	    -12.52846907	      0.64910535	      0.91712462	      0.72965805	     28.78615518	     -3.10312652	      5.41853605	     65.86641783	      1.14958586	      1.03053123	    -14.78714043	     -7.49999987	     17.26863105	      4.18136029	     -6.07571524	     18.17614847	      0.31723364	      9.05608537	     -7.10764423	     -7.49999987	      8.08770299	     -4.76288469	      4.98758065	     -0.67669714	     -8.76244724	      1.10166628	     25.32239979	     82.63013590	     -1.44827680	     -8.29927637	      6.93616748	     16.18924413	     78.01921447
     30.16666670	     -6.40957934	      4.43951959	    -12.14764404	      0.64627903	      0.92290488	      0.72779407	     30.33287659	     -2.41707727	      4.85297169	     63.99088425	      1.11685162	      4.88428995	    -14.00525294	     -7.49999987	     15.35010558	      4.10433349	     -5.39946956	     17.49625795	      0.30536731	      9.96916370	     -6.85218461	     -7.49999987	      7.86224587	     -4.27475033	      3.87292796	     -1.61416538	     -8.49163500	      0.96183776	     23.85159203	     83.03568066	     -0.42006885	     -8.71859773	      7.83863123	     17.12960773	     78.23571221
     30.18333330	     -6.30033111	      3.96747715	    -11.76387176	      0.64169906	      0.92832671	      0.72558332	     31.50957585	     -1.85844046	      4.28091426	     61.06188897	      1.06573101	      7.29089799	    -13.45994269	     -7.49999987	     13.43084897	      3.99332714	     -4.86414835	     16.71863420	      0.29179521	     10.85429091	     -6.43139515	     -7.49999987	      7.58086666	     -3.76248265	      2.94007952	     -2.56585635	     -8.26414642	      0.49567817	     22.71559935	     83.25985626	      0.66937998	     -9.10373094	      8.15825125	     18.14780527	     78.40688051
     30.20000000	     -6.32862987	      3.55692186	    -11.41248754	      0.63598380	      0.93195747	      0.72286228	     32.52417286	     -1.44118979	      3.72198563	     57.34106611	      1.00079040	      8.41163849	    -13.31408410	     -7.49999987	     11.74750213	      3.89723838	     -4.44054581	     15.91570157	      0.27778140	     11.64665428	     -5.93362125	     -7.49999987	      7.50424794	     -3.25241341	      2.13033465	     -3.43695834	     -8.06343817	     -0.01320641	     21.62120589	     82.99530187	      1.82598692	     -9.49197678	      8.08753951	     19.04142594	     78.23059336
